<?xml version="1.0" encoding="UTF-8" standalone="no"?>
<!-- Created with Inkscape (http://www.inkscape.org/) -->

<svg
   version="1.1"
   id="svg132"
   width="500"
   height="500"
   viewBox="0 0 500 500"
   sodipodi:docname="aphasia_phrases_logo.svg"
   inkscape:export-filename="aphasia_phrases_logo.png"
   inkscape:export-xdpi="196.37296"
   inkscape:export-ydpi="196.37296"
   inkscape:version="1.2 (dc2aeda, 2022-05-15)"
   xmlns:inkscape="http://www.inkscape.org/namespaces/inkscape"
   xmlns:sodipodi="http://sodipodi.sourceforge.net/DTD/sodipodi-0.dtd"
   xmlns="http://www.w3.org/2000/svg"
   xmlns:svg="http://www.w3.org/2000/svg">
  <defs
     id="defs136">
    <clipPath
       clipPathUnits="userSpaceOnUse"
       id="clipPath148">
      <path
         d="M 0,0 H 1562.5 V 1593.75 H 0 Z"
         clip-rule="evenodd"
         id="path146" />
    </clipPath>
    <clipPath
       clipPathUnits="userSpaceOnUse"
       id="clipPath160">
      <path
         d="M 0,0 H 1562.5 V 1562.5 H 0 Z"
         clip-rule="evenodd"
         id="path158" />
    </clipPath>
    <clipPath
       clipPathUnits="userSpaceOnUse"
       id="clipPath172">
      <path
         d="M 0,0 H 1562.5 V 1562.5 H 0 Z"
         clip-rule="evenodd"
         id="path170" />
    </clipPath>
    <clipPath
       clipPathUnits="userSpaceOnUse"
       id="clipPath184">
      <path
         d="M 68.868187,172.16356 H 1493.8682 V 1390.9136 H 68.868187 Z"
         clip-rule="evenodd"
         id="path182" />
    </clipPath>
    <clipPath
       clipPathUnits="userSpaceOnUse"
       id="clipPath172-9">
      <path
         d="M 0,0 H 1562.5 V 1562.5 H 0 Z"
         clip-rule="evenodd"
         id="path170-8" />
    </clipPath>
  </defs>
  <sodipodi:namedview
     id="namedview134"
     pagecolor="#505050"
     bordercolor="#eeeeee"
     borderopacity="1"
     inkscape:showpageshadow="0"
     inkscape:pageopacity="0"
     inkscape:pagecheckerboard="0"
     inkscape:deskcolor="#505050"
     showgrid="false"
     inkscape:zoom="1.3350176"
     inkscape:cx="257.67451"
     inkscape:cy="287.63666"
     inkscape:window-width="1487"
     inkscape:window-height="880"
     inkscape:window-x="0"
     inkscape:window-y="25"
     inkscape:window-maximized="0"
     inkscape:current-layer="g140">
    <inkscape:page
       x="0"
       y="0"
       id="page138"
       width="500"
       height="500" />
  </sodipodi:namedview>
  <g
     id="g140"
     inkscape:groupmode="layer"
     inkscape:label="Page 1"
     transform="matrix(0.31999998,0,0,0.31999998,0,9.434666e-6)">
    <g
       id="g166"
       transform="matrix(1,0,0,1.001197,0.58266441,0.57286946)">
      <g
         id="g168"
         clip-path="url(#clipPath172)">
        <g
           id="g174"
           transform="scale(3.125)">
     
        </g>
      </g>
    </g>
    <g
       id="g178">
      <g
         id="g180"
         clip-path="url(#clipPath184)">
        <g
           id="g186"
           transform="matrix(6.0495181,0,0,6.0513906,-504.45688,-504.987)">
          <path
             d="m 237.21875,206.79688 c 0,0 -4.94141,6.64062 -6.98437,20.08984 0,0 1.70312,8.51172 0,13.62109 -1.69922,5.10547 -6.51563,11.25391 -9.16797,15.15235 -0.85547,1.25781 -1.32813,5.78125 1.67578,6.46875 3.75,0.85156 7.92187,1.1914 7.92187,1.1914 0,0 -0.25781,3.57422 -1.61718,5.10938 0,0 0.39453,2.71875 2.24218,3.91406 0,0 4.39844,0.67969 4.56641,1.35938 0,0 -1.67188,1.02343 -2.89453,2.04296 -1.22266,1.02344 -1.54688,2.875 -1.375,4.06641 0.17187,1.19531 1.13672,2.35938 2.18359,3.49609 1.64453,1.78516 1.69531,2.19532 1.51953,8.38282 -0.14062,4.9375 1.40235,8.67968 4.08203,8.8125 0,0 8.69922,2.48437 23.25782,-0.96485 0,0 1.27343,7.02344 -0.64063,11.28125 h 49.5 c 0,0 -7.42578,-17.125 -4.63672,-25.19922 2.75391,-7.98828 9.51953,-17.52734 12.08594,-22.72656 11.23828,-22.73047 9.64844,-48.63672 -9.19531,-61.80078 -34.72656,-24.26172 -64.17969,-7.74609 -72.52344,5.70313"
             style="fill:#ffffff;fill-opacity:1;fill-rule:nonzero;stroke:none"
             id="path188" />
          <path
             d="m 237.21875,206.79688 -2.00781,-1.49219 c -0.19141,0.25 -5.33203,7.28125 -7.44531,21.20703 -0.0469,0.29297 -0.0391,0.57422 0.0195,0.86719 l 0.004,0.0234 c 0.0703,0.34375 0.70703,3.80469 0.70313,7.30079 0.004,1.85937 -0.19141,3.73046 -0.62891,5.01562 -0.71875,2.17578 -2.25,4.87109 -3.94531,7.44531 -1.69922,2.58594 -3.54297,5.07032 -4.91797,7.08985 -0.22656,0.33203 -0.375,0.64843 -0.50781,0.96875 -0.3711,0.95703 -0.5625,2.01562 -0.57031,3.19531 0.004,1.09375 0.17187,2.29297 0.79687,3.48437 0.3125,0.58985 0.76172,1.17188 1.35547,1.65235 0.59375,0.47656 1.32812,0.83203 2.11328,1.01172 3.98828,0.89843 8.21094,1.23828 8.27344,1.24609 l 0.20312,-2.49219 -2.49218,-0.17968 0.64843,0.0469 -0.64843,-0.0508 v 0.004 l 0.64843,0.0469 -0.64843,-0.0508 c 0,0.0273 -0.0703,0.83984 -0.26954,1.71875 -0.0977,0.4375 -0.22656,0.89062 -0.37109,1.25 -0.14062,0.35937 -0.30859,0.61719 -0.35547,0.66406 -0.49219,0.55078 -0.71094,1.28516 -0.60547,2.01953 0.0234,0.125 0.14453,0.96875 0.58203,2.07422 0.21875,0.55078 0.52344,1.17188 0.96094,1.80078 0.44141,0.625 1.02735,1.26563 1.82031,1.77735 0.29297,0.1914 0.62891,0.3164 0.97266,0.37109 l 0.0352,0.004 c 0.20703,0.0351 1.26172,0.21093 2.19922,0.43359 0.46093,0.10547 0.90625,0.23828 1.11328,0.31641 l 0.0937,0.0391 v 0.004 l 0.51953,-1.04297 -0.74219,0.88672 c 0.16406,0.13281 0.21875,0.15234 0.22266,0.15625 l 0.51953,-1.04297 -0.74219,0.88672 1.28906,-1.53907 -1.61328,1.19141 c 0.13281,0.17578 0.24219,0.27734 0.32422,0.34766 l 1.28906,-1.53907 -1.61328,1.19141 1.82031,-1.34375 -2.1914,0.54297 c 0.0898,0.36719 0.24219,0.6289 0.37109,0.80078 l 1.82031,-1.34375 -2.1914,0.54297 2.42578,-0.60156 -1.30469,-2.13282 c -0.0234,0.0156 -0.46484,0.28516 -1.07812,0.69532 -0.61328,0.41406 -1.39063,0.95703 -2.11328,1.55859 l -0.004,0.004 c -0.92188,0.77734 -1.48828,1.73828 -1.83203,2.66015 -0.34375,0.9336 -0.48047,1.84375 -0.48047,2.70313 0,0.33203 0.0195,0.66015 0.0703,0.99218 l -0.004,-0.0156 c 0.17187,1.14453 0.65625,2.05078 1.16796,2.8125 0.51954,0.76953 1.10157,1.42187 1.65625,2.02344 0.29297,0.3164 0.48438,0.54297 0.58204,0.67968 0.13671,0.21875 0.14453,0.21094 0.22265,0.53516 0.0664,0.31641 0.1211,0.96875 0.11719,2.03125 0,0.84375 -0.0273,1.94922 -0.0664,3.375 v -0.004 c -0.008,0.21875 -0.0117,0.44532 -0.0117,0.67969 0.008,2.58985 0.40235,4.92578 1.33204,6.875 0.47265,0.97266 1.09375,1.86719 1.95703,2.57813 0.85156,0.71093 1.99218,1.19531 3.1875,1.24609 l 0.11718,-2.49609 -0.68359,2.40234 c 0.1875,0.0547 3.45313,0.96094 9.20313,0.96094 3.98046,0 9.15625,-0.4336 15.3125,-1.89453 l -0.57422,-2.4336 -2.46094,0.44922 0.51562,-0.0937 -0.51562,0.0899 v 0.004 l 0.51562,-0.0937 -0.51562,0.0899 c 0.008,0.0508 0.37891,2.17578 0.375,4.61328 0.0117,1.875 -0.25,3.9375 -0.83203,5.19922 -0.34766,0.76953 -0.27735,1.67187 0.17969,2.38281 0.46093,0.70703 1.2539,1.14062 2.09765,1.14062 h 49.5 c 0.84375,0 1.62891,-0.42187 2.08985,-1.1289 0.46484,-0.70703 0.53906,-1.58985 0.20312,-2.36719 l -0.0117,-0.0234 c -0.1289,-0.30859 -1.41406,-3.33984 -2.65234,-7.27344 -0.61719,-1.96484 -1.22266,-4.15234 -1.66797,-6.32421 -0.44531,-2.17188 -0.72656,-4.32813 -0.72266,-6.17969 -0.004,-1.4375 0.17188,-2.67969 0.48828,-3.58594 1.26954,-3.69922 3.58204,-7.98828 5.91016,-11.96484 1.16406,-1.99219 2.33203,-3.91797 3.37891,-5.6836 1.05078,-1.76953 1.97656,-3.37109 2.67578,-4.78515 4.75,-9.61328 7.30469,-19.80078 7.30469,-29.51563 0,-7.01172 -1.33594,-13.78515 -4.17969,-19.86328 -2.83985,-6.07422 -7.20313,-11.44531 -13.12891,-15.58203 -13.27344,-9.27734 -25.99609,-12.85938 -37.17187,-12.85547 -9.44141,0 -17.74219,2.53906 -24.375,6.19531 -6.64063,3.67188 -11.62891,8.42578 -14.53516,13.09375 l 2.125,1.32032 -2.00781,-1.49219 2.00781,1.49219 2.125,1.3164 c 2.33203,-3.77734 6.74609,-8.07812 12.69531,-11.35156 5.95703,-3.28125 13.42969,-5.57422 21.96485,-5.57422 10.10547,0.008 21.7539,3.19141 34.30859,11.95703 5.20703,3.64063 8.96484,8.27344 11.46094,13.60156 2.49609,5.32813 3.71094,11.36329 3.71094,17.74219 0.004,8.83203 -2.33985,18.3125 -6.78516,27.29688 -0.58594,1.1875 -1.46875,2.72265 -2.49609,4.45312 -1.54297,2.60156 -3.41797,5.65625 -5.17969,8.83985 -1.76563,3.1914 -3.42188,6.5039 -4.53516,9.72656 -0.5664,1.64453 -0.76172,3.40625 -0.76172,5.21875 0,2.41797 0.35938,4.94531 0.875,7.41406 1.55469,7.38672 4.5625,14.29297 4.59375,14.37891 l 2.29297,-0.9961 v -2.5 h -49.5 v 2.5 l 2.28125,1.02344 c 1.05469,-2.39062 1.26172,-4.98828 1.27344,-7.24609 -0.004,-3.00782 -0.44141,-5.41407 -0.45703,-5.50391 -0.1211,-0.67578 -0.51563,-1.26953 -1.08985,-1.64453 -0.57421,-0.375 -1.27734,-0.5 -1.94531,-0.33984 -5.76562,1.36328 -10.54297,1.75781 -14.16015,1.75781 -2.61329,0 -4.61719,-0.20313 -5.94532,-0.40235 -0.66406,-0.10156 -1.16015,-0.19921 -1.47656,-0.26953 -0.16016,-0.0351 -0.27344,-0.0625 -0.33984,-0.0781 l -0.0703,-0.0195 -0.0273,0.10156 0.0273,-0.10156 -0.0273,0.10156 0.0273,-0.10156 c -0.17187,-0.0508 -0.38281,-0.0859 -0.5664,-0.0937 -0.0898,-0.0117 -0.10547,-0.004 -0.26172,-0.11719 -0.21875,-0.16406 -0.64453,-0.74609 -0.94922,-1.73438 -0.30859,-0.98046 -0.50391,-2.32421 -0.50391,-3.85156 0,-0.16797 0.004,-0.34765 0.008,-0.53906 v -0.004 c 0.0391,-1.42578 0.0703,-2.55468 0.0703,-3.50781 0,-0.79687 -0.0195,-1.46875 -0.082,-2.09766 -0.0469,-0.47265 -0.1211,-0.92187 -0.23828,-1.36718 -0.17578,-0.66407 -0.47657,-1.3086 -0.82813,-1.82813 -0.35156,-0.52344 -0.72265,-0.93359 -1.10156,-1.34375 -0.49219,-0.53515 -0.91797,-1.03515 -1.1875,-1.43359 -0.27344,-0.39844 -0.35547,-0.67188 -0.35547,-0.71875 l -0.004,-0.0156 c -0.008,-0.0547 -0.0156,-0.14453 -0.0156,-0.2539 -0.004,-0.28907 0.0586,-0.67188 0.16797,-0.96094 0.10937,-0.29688 0.2539,-0.48828 0.35547,-0.56641 h -0.004 c 0.5,-0.41406 1.16797,-0.89062 1.69531,-1.24609 0.26563,-0.17578 0.4961,-0.32422 0.65625,-0.42578 l 0.1875,-0.1211 0.0469,-0.0273 0.008,-0.004 c 0.92969,-0.57031 1.38672,-1.67968 1.125,-2.73437 -0.16797,-0.64453 -0.48047,-1.02734 -0.71875,-1.27734 -0.46484,-0.45313 -0.79297,-0.59375 -1.09766,-0.75 -0.53125,-0.2461 -1.02343,-0.39063 -1.53906,-0.53516 -0.76562,-0.20703 -1.55859,-0.36719 -2.17969,-0.48438 -0.61718,-0.11718 -1.05468,-0.18359 -1.07421,-0.1875 l -0.38282,2.47266 1.35547,-2.10156 c -0.1289,-0.082 -0.28515,-0.23047 -0.4375,-0.45313 -0.23437,-0.32422 -0.4375,-0.80078 -0.55078,-1.17578 -0.0586,-0.1875 -0.0977,-0.34765 -0.11719,-0.44922 l -0.0195,-0.10547 -0.004,-0.0117 -1.27344,0.20703 1.27734,-0.1875 -0.004,-0.0195 -1.27344,0.20703 1.27734,-0.1875 -2.47265,0.36328 1.86718,1.66015 c 0.62891,-0.71875 0.9961,-1.47265 1.28516,-2.19531 0.42187,-1.08594 0.64062,-2.13672 0.77734,-2.95312 0.13672,-0.8125 0.17969,-1.38672 0.1836,-1.4375 0.0977,-1.3711 -0.92188,-2.5625 -2.28907,-2.67578 l -0.0391,-0.004 c -0.41015,-0.0312 -4.24219,-0.38281 -7.53515,-1.13672 -0.0898,-0.0234 -0.082,-0.0273 -0.0898,-0.0312 -0.004,-0.004 -0.0703,-0.0586 -0.15234,-0.28516 -0.0781,-0.21875 -0.13672,-0.57421 -0.13281,-0.95312 -0.004,-0.35938 0.0469,-0.74219 0.11718,-1.01953 0.0312,-0.14063 0.0703,-0.25391 0.0977,-0.32031 l 0.0234,-0.0547 -0.38672,-0.20313 0.35937,0.2461 0.0273,-0.043 -0.38672,-0.20313 0.35937,0.2461 h 0.004 c 1.27344,-1.88282 3.16406,-4.42188 4.96094,-7.16016 1.79687,-2.75 3.52734,-5.67969 4.51172,-8.60937 0.69531,-2.1211 0.8789,-4.41407 0.88281,-6.59375 -0.004,-4.33594 -0.78906,-8.21485 -0.80469,-8.30469 l -2.45312,0.48828 2.47265,0.375 c 0.98828,-6.48828 2.66406,-11.29297 4.07031,-14.44531 0.70313,-1.57813 1.33594,-2.74219 1.78516,-3.4961 0.22266,-0.3789 0.40234,-0.65234 0.51563,-0.82422 l 0.125,-0.17968 0.0234,-0.0352 0.004,-0.004 -1.19141,-0.87109 1.1836,0.87891 0.008,-0.008 -1.19141,-0.87109 1.1836,0.87891 0.12109,-0.17188 -2.125,-1.3164"
             style="fill:#040606;fill-opacity:1;fill-rule:nonzero;stroke:none"
             id="path190" />
          <path
             d="m 187.98438,206.79688 c 0,0 4.9375,6.64062 6.98046,20.08984 0,0 -1.70312,8.51172 0,13.62109 1.70313,5.10547 6.51954,11.25391 9.16797,15.15235 0.85547,1.25781 1.32813,5.78125 -1.67968,6.46875 -3.74219,0.85156 -7.91797,1.1914 -7.91797,1.1914 0,0 0.25781,3.57422 1.62109,5.10938 0,0 -0.39844,2.71875 -2.24609,3.91406 0,0 -4.39063,0.67969 -4.5625,1.35938 0,0 1.67187,1.02343 2.89062,2.04296 1.22266,1.02344 1.54688,2.875 1.375,4.06641 -0.17187,1.19531 -1.13281,2.35938 -2.17969,3.49609 -1.64843,1.78516 -1.69921,2.19532 -1.52343,8.38282 0.14062,4.9375 -1.40235,8.67968 -4.08203,8.8125 0,0 -8.69532,2.48437 -23.25391,-0.96485 0,0 -1.27735,7.02344 0.63672,11.28125 h -49.5 c 0,0 7.42969,-17.125 4.64062,-25.19922 -2.75781,-7.98828 -9.51953,-17.52734 -12.08984,-22.72656 -11.234376,-22.73047 -9.648439,-48.63672 9.19531,-61.80078 34.73047,-24.26172 64.1875,-7.74609 72.52735,5.70313"
             style="fill:#ffffff;fill-opacity:1;fill-rule:nonzero;stroke:none"
             id="path192" />
          <path
             d="m 187.98438,206.79688 -2.00782,1.48828 1.21485,-0.90235 -1.21875,0.89453 0.004,0.008 1.21485,-0.90235 -1.21875,0.89453 0.043,0.0664 c 0.48437,0.69531 4.65625,6.94141 6.47656,18.91797 l 2.47265,-0.375 -2.44921,-0.49219 c -0.0156,0.0898 -0.80469,3.97266 -0.8086,8.3086 0.008,2.17968 0.1875,4.47265 0.88672,6.59765 v -0.004 c 0.98438,2.92968 2.71094,5.85937 4.51172,8.60937 1.79687,2.73828 3.68359,5.27734 4.96094,7.16016 l 0.35937,-0.2461 -0.39062,0.19922 0.0312,0.043 0.35937,-0.24219 -0.39062,0.19922 c 0.0117,0.0156 0.0977,0.22266 0.14843,0.48438 0.0586,0.26562 0.0937,0.59765 0.0937,0.91406 0.008,0.50781 -0.10937,0.96484 -0.20703,1.12891 l -0.0781,0.10937 c -0.0117,0.004 -0.004,0.008 -0.0937,0.0312 -1.7461,0.39844 -3.66406,0.69141 -5.125,0.875 -0.72656,0.0937 -1.34766,0.16016 -1.77735,0.20313 -0.21875,0.0234 -0.38671,0.0391 -0.5,0.0469 l -0.1289,0.0117 -0.0352,0.004 c -1.37109,0.11328 -2.39062,1.30078 -2.28906,2.67187 0.004,0.0742 0.0742,1.05859 0.34766,2.32813 0.13671,0.63671 0.32421,1.34375 0.60937,2.0664 0.28906,0.72266 0.65625,1.47656 1.28516,2.19531 l 1.87109,-1.66015 -2.47266,-0.36328 0.89454,0.1289 -0.89454,-0.14843 v 0.0195 l 0.89454,0.1289 -0.89454,-0.14843 c 0,0.0234 -0.0977,0.55078 -0.32421,1.07031 -0.10938,0.26172 -0.25,0.51953 -0.39454,0.71484 -0.14453,0.19922 -0.28906,0.33203 -0.41015,0.41016 l 1.35547,2.10156 -0.38282,-2.47266 c -0.0312,0.008 -1.16406,0.17969 -2.39062,0.46094 -0.61719,0.14063 -1.25,0.30078 -1.86328,0.52344 -0.3125,0.11719 -0.61719,0.24219 -0.99219,0.46484 -0.18359,0.11719 -0.39453,0.25782 -0.64062,0.50782 -0.23829,0.25 -0.55079,0.63281 -0.71875,1.27343 -0.26563,1.0625 0.1875,2.16407 1.12109,2.73828 l 0.0117,0.004 c 0.0742,0.0469 0.47656,0.29688 0.98828,0.64453 0.50781,0.34375 1.12891,0.78516 1.59375,1.17578 l -0.004,-0.004 c 0.10157,0.082 0.2461,0.26953 0.35547,0.57031 0.10938,0.28906 0.16797,0.67187 0.16797,0.96094 0,0.10547 -0.008,0.20703 -0.0195,0.28906 l 0.004,-0.0234 c 0,0.0508 -0.0859,0.32422 -0.35938,0.72656 -0.26953,0.39844 -0.69141,0.89454 -1.1875,1.42969 l 0.004,-0.004 c -0.33985,0.36718 -0.66407,0.73046 -0.98438,1.17578 -0.48437,0.66015 -0.88281,1.54687 -1.05469,2.44922 -0.17578,0.90625 -0.21484,1.82421 -0.21484,3.01953 0,0.94922 0.0273,2.08203 0.0703,3.51172 v -0.008 c 0.004,0.17969 0.004,0.36328 0.004,0.54688 0.0117,2.03906 -0.35938,3.74219 -0.83203,4.70312 -0.23438,0.48047 -0.47656,0.76172 -0.6211,0.87891 -0.15234,0.11328 -0.16796,0.10547 -0.25781,0.11719 -0.18359,0.0117 -0.39453,0.043 -0.5664,0.0937 l 0.0195,0.0742 -0.0195,-0.0742 0.0195,0.0742 -0.0195,-0.0742 c -0.16797,0.0469 -2.9375,0.76953 -7.82813,0.76953 -3.62109,0 -8.39844,-0.39453 -14.16406,-1.75781 -0.66797,-0.16016 -1.36719,-0.0352 -1.94141,0.33984 -0.57422,0.375 -0.96875,0.96875 -1.09375,1.64453 -0.0117,0.0898 -0.45312,2.49609 -0.45703,5.50391 0.0117,2.25781 0.21484,4.85937 1.27344,7.25 l 2.28125,-1.02735 v -2.5 h -49.5 v 2.5 l 2.29297,0.9961 c 0.0234,-0.0508 1.36718,-3.15235 2.72265,-7.38672 0.67578,-2.1211 1.35547,-4.52735 1.875,-6.99219 0.51563,-2.46875 0.875,-5 0.875,-7.41406 -0.004,-1.81641 -0.19922,-3.57422 -0.76172,-5.21485 -1.48828,-4.29687 -3.9375,-8.77343 -6.32031,-12.85937 -1.1914,-2.03906 -2.36719,-3.97656 -3.39844,-5.71094 -1.02734,-1.73047 -1.91015,-3.26562 -2.49218,-4.45312 -4.44532,-8.98828 -6.79297,-18.46485 -6.78907,-27.29688 0,-6.3789 1.21485,-12.41406 3.71094,-17.74219 2.4961,-5.32812 6.25391,-9.96093 11.46094,-13.60156 12.55859,-8.76562 24.20312,-11.94922 34.30859,-11.95703 8.53516,0 16.00781,2.29297 21.96094,5.57422 5.95313,3.27344 10.36719,7.57422 12.70313,11.35156 l 0.11718,0.17188 2.00782,-1.48828 2.12109,-1.32032 c -2.90625,-4.66797 -7.89453,-9.42187 -14.53516,-13.09375 -6.63281,-3.65625 -14.93359,-6.19531 -24.375,-6.19531 -11.17578,-0.004 -23.89843,3.57813 -37.17187,12.85547 -5.92578,4.13672 -10.28906,9.50781 -13.12891,15.58203 -2.843749,6.07813 -4.179686,12.85156 -4.179686,19.86328 0,9.71485 2.558594,19.90235 7.304686,29.51563 0.70313,1.41406 1.62891,3.01953 2.67578,4.78515 1.57422,2.64844 3.41797,5.65235 5.10938,8.71094 1.6914,3.05469 3.23047,6.16406 4.18359,8.9375 0.31641,0.90625 0.49219,2.15234 0.48828,3.58594 0.004,1.91015 -0.29687,4.14453 -0.76953,6.38672 -0.70312,3.36718 -1.78125,6.75 -2.68359,9.26953 -0.45313,1.26172 -0.85547,2.30859 -1.14844,3.03515 -0.14453,0.35938 -0.26172,0.64454 -0.33984,0.83204 -0.0391,0.0976 -0.0703,0.16796 -0.0898,0.21484 l -0.0234,0.0508 -0.004,0.0117 c -0.33594,0.77734 -0.26172,1.66016 0.20312,2.36719 0.46485,0.70703 1.2461,1.1289 2.08985,1.1289 h 49.5 c 0.85156,0 1.63672,-0.42578 2.09765,-1.14453 0.46485,-0.71484 0.53125,-1.60547 0.17969,-2.38281 -0.58203,-1.25781 -0.84375,-3.31641 -0.83203,-5.19531 0,-1.25391 0.0977,-2.4336 0.19141,-3.28125 0.0508,-0.42578 0.0977,-0.76563 0.13281,-1 0.0156,-0.11328 0.0312,-0.20313 0.0391,-0.25782 l 0.0117,-0.0586 0.004,-0.0117 -0.46094,-0.082 0.46094,0.082 -0.46094,-0.082 0.46094,0.082 -2.46094,-0.44922 -0.57813,2.4336 c 6.15625,1.46093 11.33204,1.89453 15.31641,1.89453 5.74609,0 9.01172,-0.90625 9.20313,-0.96094 l -0.6875,-2.40234 0.11718,2.49609 c 1.19532,-0.0508 2.33594,-0.53516 3.1875,-1.24609 1.29297,-1.07422 2.05078,-2.51953 2.55469,-4.10938 0.5,-1.59765 0.73047,-3.39844 0.73438,-5.33984 -0.004,-0.22266 -0.004,-0.44922 -0.0117,-0.67969 v -0.008 c -0.043,-1.41406 -0.0664,-2.51563 -0.0664,-3.36328 0,-0.70703 0.0195,-1.23438 0.0547,-1.60157 0.0273,-0.27343 0.0625,-0.45312 0.0937,-0.5664 0.0508,-0.17578 0.0703,-0.20703 0.16015,-0.35156 0.0859,-0.13282 0.28125,-0.3711 0.61719,-0.73047 l 0.004,-0.004 c 0.55078,-0.60156 1.1289,-1.25391 1.64844,-2.01953 0.51171,-0.76563 0.99609,-1.66406 1.16796,-2.80859 l 0.004,-0.0234 c 0.0391,-0.30469 0.0625,-0.6211 0.0625,-0.95703 -0.004,-0.85547 -0.13672,-1.76563 -0.48047,-2.69922 -0.33984,-0.92188 -0.90625,-1.88281 -1.82812,-2.66016 l -0.004,-0.004 c -0.72656,-0.60547 -1.5,-1.14844 -2.11328,-1.5625 -0.61328,-0.41016 -1.05859,-0.67969 -1.07813,-0.69532 l -1.30468,2.13282 2.42578,0.60546 -2.14453,-0.53515 1.58593,1.55078 c 0.15235,-0.16016 0.41407,-0.45703 0.5586,-1.01563 l -2.14453,-0.53515 1.58593,1.55078 -1.19531,-1.16797 0.89063,1.41797 c 0.0547,-0.0352 0.14843,-0.0937 0.30468,-0.25 l -1.19531,-1.16797 0.89063,1.41797 -0.45703,-0.73047 0.41015,0.75781 0.0469,-0.0273 -0.45703,-0.73047 0.41015,0.75781 -0.16406,-0.29687 0.15625,0.30469 0.008,-0.008 -0.16406,-0.29687 0.15625,0.30469 0.0469,-0.0234 c 0.13282,-0.0547 0.45704,-0.16016 0.82422,-0.25391 0.55078,-0.14453 1.21094,-0.27734 1.71875,-0.37109 0.25391,-0.0508 0.46875,-0.0859 0.6211,-0.11328 l 0.17578,-0.0274 0.0547,-0.008 c 0.34375,-0.0547 0.67968,-0.17969 0.97265,-0.37109 0.79297,-0.51172 1.37891,-1.15235 1.81641,-1.77735 0.65625,-0.9414 1.01172,-1.86718 1.23437,-2.57422 0.21875,-0.70703 0.29297,-1.20703 0.3086,-1.30078 0.10547,-0.73047 -0.11328,-1.46875 -0.60547,-2.02343 -0.0508,-0.0469 -0.22656,-0.31641 -0.36719,-0.69532 -0.22656,-0.5664 -0.40234,-1.34375 -0.5,-1.94531 -0.0508,-0.30078 -0.0859,-0.5625 -0.10156,-0.73828 l -0.0234,-0.19922 -0.004,-0.0469 -2.49218,0.17968 0.20312,2.49219 c 0.0625,-0.008 4.28906,-0.34766 8.26953,-1.24609 0.78907,-0.17969 1.52344,-0.53516 2.11719,-1.01563 0.89453,-0.72265 1.4375,-1.65625 1.74219,-2.54297 0.30859,-0.89453 0.41015,-1.76953 0.41015,-2.58984 0,-0.78516 -0.0937,-1.51953 -0.25781,-2.20313 -0.082,-0.33984 -0.18359,-0.66796 -0.3125,-0.98828 -0.1289,-0.32422 -0.28125,-0.63672 -0.5039,-0.96875 -1.375,-2.02343 -3.22266,-4.50781 -4.91797,-7.09375 -1.69922,-2.57422 -3.23047,-5.26953 -3.94922,-7.44922 -0.4375,-1.28125 -0.63281,-3.15234 -0.62891,-5.01171 0,-1.85938 0.17969,-3.72266 0.35938,-5.09766 0.0898,-0.6875 0.17968,-1.25391 0.24609,-1.64453 0.0312,-0.19531 0.0586,-0.34766 0.0781,-0.44531 l 0.0195,-0.10938 0.008,-0.0273 c 0.0586,-0.29297 0.0625,-0.57422 0.0195,-0.86719 -2.11719,-13.92969 -7.25781,-20.95703 -7.44922,-21.20703 l -2.0039,1.49219 2.12109,-1.32032 -2.12109,1.32032"
             style="fill:#040606;fill-opacity:1;fill-rule:nonzero;stroke:none"
             id="path194" />
          <path
             d="m 287.44531,153.35937 c 0,-21.53124 -23.65234,-38.97656 -52.83593,-38.97656 -29.17969,0 -52.83594,17.44532 -52.83594,38.97656 0,21.52735 23.65625,38.97657 52.83594,38.97657 0.32812,0 0.64843,-0.004 0.96875,-0.008 2.7539,3.8125 7.54687,8.5 15.83593,12.48437 0,0 -2.90234,-6.53906 -4.375,-13.5625 23.1836,-4.125 40.40625,-19.52344 40.40625,-37.89063"
             style="fill:#60afdf;fill-opacity:1;fill-rule:nonzero;stroke:none"
             id="path196" />
          <path
             d="m 287.44531,153.35937 h 2.5 c 0.004,-5.84375 -1.60937,-11.41406 -4.48047,-16.41796 -4.3125,-7.50782 -11.39843,-13.75391 -20.19921,-18.14063 -8.80079,-4.38672 -19.33985,-6.91797 -30.65625,-6.91797 -15.08985,0.004 -28.79297,4.49219 -38.84375,11.90235 -5.02735,3.70703 -9.14063,8.15234 -12.00782,13.15625 -2.87109,5.0039 -4.48828,10.57421 -4.48437,16.41796 -0.004,5.84375 1.61328,11.41407 4.48437,16.41407 4.3086,7.50781 11.39453,13.75781 20.19532,18.14453 8.80468,4.38672 19.33984,6.91797 30.65625,6.91797 0.34765,0 0.67968,-0.004 1,-0.008 l -0.0312,-2.5 -2.02344,1.46484 c 2.98437,4.14062 8.13281,9.125 16.77734,13.26953 0.94531,0.45703 2.07031,0.27344 2.82422,-0.45703 0.75,-0.73047 0.96875,-1.85156 0.54297,-2.80859 l -0.004,-0.0117 c -0.14062,-0.30078 -2.85547,-6.5586 -4.21093,-13.04688 l -2.44532,0.51172 0.4375,2.46094 c 12.01172,-2.14063 22.53907,-7.19531 30.15625,-14.23047 3.80469,-3.51953 6.88282,-7.53906 9.01172,-11.94531 2.12891,-4.40235 3.30469,-9.19141 3.30078,-14.17579 h -5 c 0,4.19922 -0.97656,8.22266 -2.80078,12 -2.73828,5.66407 -7.40625,10.78126 -13.51953,14.85157 -6.10937,4.07031 -13.64844,7.08984 -22.02344,8.57812 -0.66797,0.11719 -1.25781,0.5 -1.63672,1.0625 -0.3789,0.5586 -0.51171,1.25 -0.375,1.91016 1.55079,7.35156 4.50391,13.97266 4.53907,14.0625 l 2.28515,-1.01172 1.08203,-2.25391 c -7.9375,-3.8164 -12.37109,-8.21484 -14.89062,-11.69531 -0.47266,-0.65625 -1.24609,-1.04687 -2.05469,-1.03515 -0.32422,0.004 -0.63672,0.008 -0.9414,0.008 -14.09375,0.004 -26.8086,-4.23047 -35.87891,-10.92578 -4.53516,-3.34766 -8.16016,-7.30078 -10.63672,-11.6211 -2.47656,-4.32812 -3.82031,-9.00781 -3.82031,-13.92969 0,-4.92187 1.34375,-9.60546 3.82031,-13.92968 3.71094,-6.48047 10.01953,-12.13672 18.08984,-16.15625 8.0625,-4.01953 17.85547,-6.39453 28.42579,-6.39063 14.09375,-0.008 26.80859,4.22656 35.8789,10.92578 4.53516,3.34766 8.16016,7.30078 10.63672,11.6211 2.47656,4.32422 3.82031,9.00781 3.82031,13.92968 h 2.5"
             style="fill:#040606;fill-opacity:1;fill-rule:nonzero;stroke:none"
             id="path198" />
          <path
             d="m 151.62891,174.60156 c 0,-15.17578 16.67968,-27.47656 37.25,-27.47656 20.5664,0 37.24218,12.30078 37.24218,27.47656 0,15.17578 -16.67578,27.47657 -37.24218,27.47657 -0.23047,0 -0.46094,-0.004 -0.6875,-0.008 -1.9375,2.6875 -5.31641,5.99219 -11.16016,8.79688 0,0 2.04297,-4.60156 3.08203,-9.55469 -16.33984,-2.91016 -28.48437,-13.76172 -28.48437,-26.71094"
             style="fill:#8bd1f3;fill-opacity:1;fill-rule:nonzero;stroke:none"
             id="path200" />
          <path
             d="m 151.62891,174.60156 h 2.5 c 0.004,-3.33203 0.90625,-6.5039 2.59765,-9.45312 2.52735,-4.41797 6.85938,-8.31641 12.44141,-11.09375 5.57422,-2.78125 12.36719,-4.42969 19.71094,-4.42969 9.78515,-0.004 18.60156,2.94141 24.84765,7.55859 3.12891,2.30469 5.60938,5.01953 7.29688,7.96485 1.6914,2.94922 2.59375,6.12109 2.59765,9.45312 -0.004,3.33203 -0.90625,6.50391 -2.59765,9.45313 -2.52735,4.41797 -6.85938,8.3164 -12.4375,11.09375 -5.57422,2.78125 -12.3711,4.42969 -19.70703,4.42969 -0.20313,0 -0.42578,-0.004 -0.66797,-0.008 -0.8086,-0.004 -1.57422,0.38282 -2.04688,1.03907 -1.70312,2.35546 -4.72656,5.36718 -10.21484,8.0039 l 1.08203,2.25391 2.28516,1.01562 c 0.0352,-0.0859 2.13281,-4.78125 3.24609,-10.05859 0.13672,-0.66016 0.004,-1.34766 -0.375,-1.91016 -0.37891,-0.5625 -0.96875,-0.94531 -1.63281,-1.0625 -7.75,-1.375 -14.44532,-4.64453 -19.11328,-8.96484 -2.33594,-2.16016 -4.16797,-4.57813 -5.41016,-7.14844 -1.24219,-2.57031 -1.90234,-5.29297 -1.90234,-8.13672 h -5 c 0,3.62891 0.85546,7.1211 2.40234,10.3125 2.32031,4.80078 6.16406,8.9375 11.00391,12.16407 4.84375,3.22656 10.69531,5.54687 17.14062,6.69531 l 0.4375,-2.46094 -2.44531,-0.51172 c -0.48438,2.30469 -1.22266,4.60156 -1.83594,6.29688 -0.30859,0.84765 -0.58203,1.54687 -0.78125,2.03125 -0.0977,0.23828 -0.17578,0.42578 -0.23047,0.55078 l -0.0586,0.13672 -0.0117,0.0312 -0.004,0.008 c -0.42578,0.95703 -0.21093,2.07812 0.54297,2.80859 0.75391,0.73047 1.87891,0.91407 2.82422,0.45703 6.19531,-2.96875 9.9336,-6.57031 12.10547,-9.58593 l -2.02734,-1.46485 -0.0195,2.5 c 0.21093,0.004 0.44921,0.008 0.70703,0.008 10.78125,-0.004 20.58593,-3.20704 27.8164,-8.53516 3.61328,-2.66406 6.58594,-5.87109 8.66797,-9.50391 2.08203,-3.625 3.25781,-7.68359 3.25781,-11.9375 0,-4.2539 -1.17578,-8.3125 -3.25781,-11.9375 -3.1289,-5.44531 -8.23828,-9.9375 -14.54687,-13.08594 -6.31641,-3.14453 -13.85157,-4.95312 -21.9375,-4.95312 -10.78516,0.004 -20.59375,3.20703 -27.82422,8.53516 -3.61328,2.66406 -6.58594,5.87109 -8.66797,9.5 -2.08203,3.6289 -3.26172,7.6875 -3.25781,11.9414 h 2.5"
             style="fill:#040606;fill-opacity:1;fill-rule:nonzero;stroke:none"
             id="path202" />
          <path
             d="m 177.44141,175.70703 c 0,1.81641 -1.47266,3.28906 -3.29297,3.28906 -1.81641,0 -3.28906,-1.47265 -3.28906,-3.28906 0,-1.8164 1.47265,-3.29297 3.28906,-3.29297 1.82031,0 3.29297,1.47657 3.29297,3.29297"
             style="fill:#040606;fill-opacity:1;fill-rule:nonzero;stroke:none"
             id="path204" />
          <path
             d="m 192.16406,175.70703 c 0,1.81641 -1.47265,3.28906 -3.28515,3.28906 -1.82032,0 -3.29297,-1.47265 -3.29297,-3.28906 0,-1.8164 1.47265,-3.29297 3.29297,-3.29297 1.8125,0 3.28515,1.47657 3.28515,3.29297"
             style="fill:#040606;fill-opacity:1;fill-rule:nonzero;stroke:none"
             id="path206" />
          <path
             d="m 206.89453,175.70703 c 0,1.81641 -1.47265,3.28906 -3.29297,3.28906 -1.8164,0 -3.28906,-1.47265 -3.28906,-3.28906 0,-1.8164 1.47266,-3.29297 3.28906,-3.29297 1.82032,0 3.29297,1.47657 3.29297,3.29297"
             style="fill:#040606;fill-opacity:1;fill-rule:nonzero;stroke:none"
             id="path208" />
        </g>
      </g>
    </g>
  </g>
</svg>
